<svg width="139" height="42" viewBox="0 0 139 42" fill="none" xmlns="http://www.w3.org/2000/svg">
<rect x="94" width="45" height="42" rx="7" fill="#FFAA1D"/>
<path d="M99.3125 32V9.25H106.031C108.042 9.25 109.823 9.69792 111.375 10.5938C112.938 11.4896 114.146 12.7604 115 14.4062C115.854 16.0521 116.281 17.9375 116.281 20.0625V21.2031C116.281 23.3594 115.849 25.2552 114.984 26.8906C114.13 28.526 112.906 29.7865 111.312 30.6719C109.729 31.5573 107.911 32 105.859 32H99.3125ZM103.266 12.4375V28.8438H105.844C107.917 28.8438 109.505 28.1979 110.609 26.9062C111.724 25.6042 112.292 23.7396 112.312 21.3125V20.0469C112.312 17.5781 111.776 15.6927 110.703 14.3906C109.63 13.0885 108.073 12.4375 106.031 12.4375H103.266ZM134.688 23.7188C134.688 26.3438 134.099 28.4323 132.922 29.9844C131.755 31.5365 130.146 32.3125 128.094 32.3125C126.115 32.3125 124.573 31.599 123.469 30.1719L123.281 32H119.844V8H123.641V16.7188C124.734 15.4271 126.208 14.7812 128.062 14.7812C130.125 14.7812 131.745 15.5469 132.922 17.0781C134.099 18.6094 134.688 20.75 134.688 23.5V23.7188ZM130.891 23.3906C130.891 21.5573 130.568 20.1823 129.922 19.2656C129.276 18.349 128.339 17.8906 127.109 17.8906C125.464 17.8906 124.307 18.6094 123.641 20.0469V27.0156C124.318 28.4844 125.484 29.2188 127.141 29.2188C128.328 29.2188 129.245 28.776 129.891 27.8906C130.536 27.0052 130.87 25.6667 130.891 23.875V23.3906Z" fill="black"/>
<path d="M7.4375 9.25L14 26.6875L20.5469 9.25H25.6562V32H21.7188V24.5L22.1094 14.4688L15.3906 32H12.5625L5.85938 14.4844L6.25 24.5V32H2.3125V9.25H7.4375ZM29.2656 23.3906C29.2656 21.7344 29.5938 20.2448 30.25 18.9219C30.9062 17.5885 31.8281 16.5677 33.0156 15.8594C34.2031 15.1406 35.5677 14.7812 37.1094 14.7812C39.3906 14.7812 41.2396 15.5156 42.6562 16.9844C44.0833 18.4531 44.8542 20.401 44.9688 22.8281L44.9844 23.7188C44.9844 25.3854 44.6615 26.875 44.0156 28.1875C43.3802 29.5 42.4635 30.5156 41.2656 31.2344C40.0781 31.9531 38.7031 32.3125 37.1406 32.3125C34.7552 32.3125 32.8438 31.5208 31.4062 29.9375C29.9792 28.3438 29.2656 26.224 29.2656 23.5781V23.3906ZM33.0625 23.7188C33.0625 25.4583 33.4219 26.8229 34.1406 27.8125C34.8594 28.7917 35.8594 29.2812 37.1406 29.2812C38.4219 29.2812 39.4167 28.7812 40.125 27.7812C40.8438 26.7812 41.2031 25.3177 41.2031 23.3906C41.2031 21.6823 40.8333 20.3281 40.0938 19.3281C39.3646 18.3281 38.3698 17.8281 37.1094 17.8281C35.8698 17.8281 34.8854 18.3229 34.1562 19.3125C33.4271 20.2917 33.0625 21.7604 33.0625 23.7188ZM53.9062 27.1875L57.4844 15.0938H61.4062L55.5469 32H52.25L46.3438 15.0938H50.2812L53.9062 27.1875ZM67.8281 32H64.0312V15.0938H67.8281V32ZM63.7969 10.7031C63.7969 10.1198 63.9792 9.63542 64.3438 9.25C64.7188 8.86458 65.25 8.67188 65.9375 8.67188C66.625 8.67188 67.1562 8.86458 67.5312 9.25C67.9062 9.63542 68.0938 10.1198 68.0938 10.7031C68.0938 11.276 67.9062 11.7552 67.5312 12.1406C67.1562 12.5156 66.625 12.7031 65.9375 12.7031C65.25 12.7031 64.7188 12.5156 64.3438 12.1406C63.9792 11.7552 63.7969 11.276 63.7969 10.7031ZM79.4219 32.3125C77.0156 32.3125 75.0625 31.5573 73.5625 30.0469C72.0729 28.526 71.3281 26.5052 71.3281 23.9844V23.5156C71.3281 21.8281 71.651 20.3229 72.2969 19C72.9531 17.6667 73.8698 16.6302 75.0469 15.8906C76.224 15.151 77.5365 14.7812 78.9844 14.7812C81.2865 14.7812 83.0625 15.5156 84.3125 16.9844C85.5729 18.4531 86.2031 20.5312 86.2031 23.2188V24.75H75.1562C75.2708 26.1458 75.7344 27.25 76.5469 28.0625C77.3698 28.875 78.401 29.2812 79.6406 29.2812C81.3802 29.2812 82.7969 28.5781 83.8906 27.1719L85.9375 29.125C85.2604 30.1354 84.3542 30.9219 83.2188 31.4844C82.0938 32.0365 80.8281 32.3125 79.4219 32.3125ZM78.9688 17.8281C77.9271 17.8281 77.0833 18.1927 76.4375 18.9219C75.8021 19.651 75.3958 20.6667 75.2188 21.9688H82.4531V21.6875C82.3698 20.4167 82.0312 19.4583 81.4375 18.8125C80.8438 18.1562 80.0208 17.8281 78.9688 17.8281Z" fill="black"/>
</svg>
